<?xml version="1.0" encoding="UTF-8" standalone="no"?>
<!DOCTYPE svg PUBLIC "-//W3C//DTD SVG 1.1//EN" "http://www.w3.org/Graphics/SVG/1.1/DTD/svg11.dtd">
<svg width="100%" height="100%" viewBox="0 0 90 80" version="1.1" xmlns="http://www.w3.org/2000/svg" xmlns:xlink="http://www.w3.org/1999/xlink" xml:space="preserve" xmlns:serif="http://www.serif.com/" style="fill-rule:evenodd;clip-rule:evenodd;stroke-linejoin:round;stroke-miterlimit:2;">
    <g transform="matrix(1,0,0,1,-450,-240)">
        <path d="M475.748,240.155C475.154,240.064 474.575,240.391 474.346,240.946C471.497,247.856 453.92,290.493 450.556,298.651C450.415,298.994 450.426,299.381 450.588,299.716C450.749,300.05 451.046,300.299 451.403,300.401C460.426,302.979 510.19,317.197 518.747,319.642C519.079,319.737 519.436,319.696 519.738,319.528C520.04,319.36 520.263,319.079 520.358,318.747C522.801,310.196 537.001,260.496 539.594,251.422C539.697,251.062 539.64,250.676 539.438,250.361C539.236,250.046 538.908,249.833 538.538,249.776C529.67,248.417 483.21,241.298 475.748,240.155Z" style="fill:rgb(63,63,63);"/>
    </g>
</svg>
