<?xml version="1.0" encoding="UTF-8" standalone="no"?>
<!DOCTYPE svg PUBLIC "-//W3C//DTD SVG 1.1//EN" "http://www.w3.org/Graphics/SVG/1.1/DTD/svg11.dtd">
<svg width="100%" height="100%" viewBox="0 0 156 100" version="1.1" xmlns="http://www.w3.org/2000/svg" xmlns:xlink="http://www.w3.org/1999/xlink" xml:space="preserve" xmlns:serif="http://www.serif.com/" style="fill-rule:evenodd;clip-rule:evenodd;stroke-linejoin:round;stroke-miterlimit:2;">
    <g transform="matrix(1,0,0,1,-574.429,-460)">
        <g transform="matrix(0.357143,0,0,0.357143,369.276,360)">
            <path d="M800,290L640,440L654.472,470L620,510L870,500L930,520L980,310L800,290Z" style="fill:rgb(207,131,58);"/>
            <clipPath id="_clip1">
                <path d="M800,290L640,440L654.472,470L620,510L870,500L930,520L980,310L800,290Z"/>
            </clipPath>
            <g clip-path="url(#_clip1)">
                <g transform="matrix(1.93433,-1.81605,1.01961,1.08601,-904.262,1079.37)">
                    <rect x="560" y="355.879" width="180" height="114.121" style="fill:rgb(238,167,98);"/>
                </g>
            </g>
        </g>
        <g transform="matrix(0.357143,0,0,0.357143,369.276,360)">
            <path d="M574.429,505.571L605.694,474.306C610.209,476.74 615.462,478.079 621.039,477.951C637.376,477.573 650.349,464.743 649.993,449.316C649.869,443.938 646,442 640,440L800,280L915.358,280C922.279,291.952 935.207,300 950,300C964.793,300 977.721,291.952 984.642,280L1008.94,280L1006.37,345.99C1004.19,345.442 1001.92,345.178 999.599,345.231C983.263,345.608 970.362,361.594 970.808,380.905C971.254,400.217 984.879,415.59 1001.22,415.212C1002.04,415.193 1002.86,415.134 1003.67,415.036L1000,509.073L927.613,521.362C931.842,510.722 930.5,499.522 923.201,492.941C913.067,483.803 895.262,487.007 883.466,500.091C875.124,509.343 872.006,521.073 874.478,530.381L700,560L588.032,546.004C597.356,538.427 601.525,527.25 597.504,518.019C593.923,509.798 584.789,505.284 574.429,505.571ZM870,405C868.093,404.619 866.12,404.419 864.102,404.419C847.544,404.419 825,428.443 825,445C825,446.007 825.05,447.002 825.147,447.983C826.646,463.142 839.449,475 855,475C870.444,475 893,451 895.819,440C899.429,425.916 883.737,407.743 870,405ZM726.18,398.72C719.667,392.645 704.409,398.403 692.13,411.569C679.85,424.736 675.168,440.357 681.681,446.431C688.194,452.506 703.451,446.748 715.731,433.582C728.011,420.415 732.693,404.794 726.18,398.72ZM897.634,310.162C888.214,301.459 871.444,304.266 860.208,316.427C848.971,328.588 847.496,345.527 856.915,354.231C866.335,362.934 883.105,360.127 894.341,347.966C905.578,335.805 907.053,318.866 897.634,310.162ZM712.312,465.685C707.49,461.229 696.864,464.873 688.599,473.818C680.335,482.762 677.54,493.642 682.363,498.098C687.186,502.555 697.812,498.911 706.076,489.966C714.341,481.021 717.135,470.142 712.312,465.685Z" style="fill:rgb(255,193,98);"/>
            <clipPath id="_clip2">
                <path d="M574.429,505.571L605.694,474.306C610.209,476.74 615.462,478.079 621.039,477.951C637.376,477.573 650.349,464.743 649.993,449.316C649.869,443.938 646,442 640,440L800,280L915.358,280C922.279,291.952 935.207,300 950,300C964.793,300 977.721,291.952 984.642,280L1008.94,280L1006.37,345.99C1004.19,345.442 1001.92,345.178 999.599,345.231C983.263,345.608 970.362,361.594 970.808,380.905C971.254,400.217 984.879,415.59 1001.22,415.212C1002.04,415.193 1002.86,415.134 1003.67,415.036L1000,509.073L927.613,521.362C931.842,510.722 930.5,499.522 923.201,492.941C913.067,483.803 895.262,487.007 883.466,500.091C875.124,509.343 872.006,521.073 874.478,530.381L700,560L588.032,546.004C597.356,538.427 601.525,527.25 597.504,518.019C593.923,509.798 584.789,505.284 574.429,505.571ZM870,405C868.093,404.619 866.12,404.419 864.102,404.419C847.544,404.419 825,428.443 825,445C825,446.007 825.05,447.002 825.147,447.983C826.646,463.142 839.449,475 855,475C870.444,475 893,451 895.819,440C899.429,425.916 883.737,407.743 870,405ZM726.18,398.72C719.667,392.645 704.409,398.403 692.13,411.569C679.85,424.736 675.168,440.357 681.681,446.431C688.194,452.506 703.451,446.748 715.731,433.582C728.011,420.415 732.693,404.794 726.18,398.72ZM897.634,310.162C888.214,301.459 871.444,304.266 860.208,316.427C848.971,328.588 847.496,345.527 856.915,354.231C866.335,362.934 883.105,360.127 894.341,347.966C905.578,335.805 907.053,318.866 897.634,310.162ZM712.312,465.685C707.49,461.229 696.864,464.873 688.599,473.818C680.335,482.762 677.54,493.642 682.363,498.098C687.186,502.555 697.812,498.911 706.076,489.966C714.341,481.021 717.135,470.142 712.312,465.685Z"/>
            </clipPath>
            <g clip-path="url(#_clip2)">
                <g transform="matrix(0.820298,0.894815,-1.00887,0.924853,562.682,-608.931)">
                    <rect x="430" y="200" width="360" height="410" style="fill:rgb(255,213,146);"/>
                </g>
            </g>
        </g>
    </g>
</svg>
