<?xml version="1.0" encoding="UTF-8" standalone="no"?>
<!DOCTYPE svg PUBLIC "-//W3C//DTD SVG 1.1//EN" "http://www.w3.org/Graphics/SVG/1.1/DTD/svg11.dtd">
<svg width="100%" height="100%" viewBox="0 0 93 88" version="1.1" xmlns="http://www.w3.org/2000/svg" xmlns:xlink="http://www.w3.org/1999/xlink" xml:space="preserve" xmlns:serif="http://www.serif.com/" style="fill-rule:evenodd;clip-rule:evenodd;stroke-linejoin:round;stroke-miterlimit:2;">
    <g transform="matrix(1,0,0,1,-597.991,-305.573)">
        <g transform="matrix(0.696927,0,0,0.603047,235.589,197.025)">
            <path d="M559.669,180C552.898,180 546.797,184.723 544.221,191.96C538.923,206.841 529.917,232.141 524.507,247.34C521.807,254.924 523.547,263.65 528.847,269.103C540.571,281.167 561.191,302.383 573.367,314.912C579.11,320.821 587.601,321.436 593.938,316.401C599.897,311.666 606.105,306.734 606.105,306.734C606.105,306.734 629.066,273.362 642.514,253.817C647.896,245.994 647.223,234.718 640.961,227.825C629.148,214.82 610.967,194.805 602.358,185.327C599.251,181.907 595.126,180 590.836,180C582.827,180 569.283,180 559.669,180Z" style="fill:rgb(206,170,124);"/>
        </g>
        <g transform="matrix(0.603047,0,0,0.603047,296.801,197.025)">
            <path d="M562.097,180C553.932,180 546.65,185.138 543.911,192.83C538.559,207.864 529.751,232.608 524.45,247.499C521.769,255.029 524.007,263.433 530.077,268.633C541.742,278.627 561.084,295.196 574.637,306.807C578.65,310.245 583.897,311.888 589.155,311.352C594.412,310.816 599.219,308.148 602.456,303.971C614.114,288.924 631.327,266.708 642.096,252.809C647.836,245.401 647.426,234.942 641.126,228.006C629.716,215.445 612.233,196.199 603.264,186.324C599.605,182.297 594.416,180 588.975,180C581.564,180 570.705,180 562.097,180Z" style="fill:rgb(247,218,170);"/>
        </g>
    </g>
</svg>
